<?xml version="1.0" standalone="no"?>
<!DOCTYPE svg PUBLIC "-//W3C//DTD SVG 20010904//EN"
 "http://www.w3.org/TR/2001/REC-SVG-20010904/DTD/svg10.dtd">
<svg version="1.0" xmlns="http://www.w3.org/2000/svg"
 width="260.000000pt" height="260.000000pt" viewBox="0 0 260.000000 260.000000"
 preserveAspectRatio="xMidYMid meet">
<metadata>
Created by potrace 1.11, written by Peter Selinger 2001-2013
</metadata>
<g transform="translate(0.000000,260.000000) scale(0.100000,-0.100000)"
fill="#000000" stroke="none">
<path d="M1085 2586 c-297 -58 -515 -172 -716 -376 -240 -244 -369 -561 -369
-910 0 -355 131 -671 380 -920 249 -249 565 -380 920 -380 355 0 671 131 920
380 249 249 380 565 380 920 0 606 -400 1117 -992 1266 -87 22 -131 27 -278
30 -120 2 -197 -1 -245 -10z m184 -379 c61 -31 91 -88 91 -171 0 -67 -51 -328
-126 -643 -26 -112 -44 -206 -41 -209 4 -4 35 -3 69 2 l62 9 58 85 c53 77 159
281 311 600 97 204 144 245 268 238 56 -3 76 -9 111 -34 24 -16 53 -49 66 -72
49 -89 36 -215 -25 -227 -78 -16 -127 -64 -258 -255 -75 -108 -194 -255 -279
-344 -36 -38 -66 -72 -66 -75 0 -4 12 -18 26 -32 42 -39 97 -125 162 -255 76
-152 94 -168 179 -161 69 7 73 3 73 -65 0 -105 -108 -198 -266 -228 -80 -16
-131 -2 -173 46 -17 19 -73 122 -125 229 -52 107 -109 215 -127 240 -32 44
-113 104 -125 92 -3 -3 -29 -114 -58 -246 -28 -132 -57 -246 -64 -253 -20 -20
-130 -16 -172 6 -49 25 -108 84 -132 130 -41 81 -2 240 94 386 35 53 75 181
62 201 -3 5 -38 9 -78 9 -123 0 -215 38 -287 117 -136 150 -64 419 175 658
216 216 442 300 595 222z"/>
<path d="M914 1922 c-60 -44 -140 -136 -169 -196 -48 -98 -46 -182 6 -240 33
-38 154 -95 169 -80 16 16 100 365 107 441 7 82 -3 103 -47 103 -15 0 -45 -13
-66 -28z"/>
</g>
</svg>
